<?xml version="1.0" encoding="UTF-8"?>
<svg id="Layer_1" data-name="Layer 1" xmlns="http://www.w3.org/2000/svg" viewBox="0 0 323.93 311.61">
  <defs>
    <style>
      .cls-1 {
        stroke-width: 0px;
      }
    </style>
  </defs>
  <path class="cls-1" d="m257.62,32.31c-2.45,0-3.94,0-5.43,0-63.49,0-126.99,0-190.48,0-8.64,0-14.07-5.36-13.57-13.27.37-5.79,5.01-10.52,10.81-11.01.99-.08,1.99-.08,2.99-.08,72.73,0,145.45,0,218.18,0,9.75,0,16.39,4.58,18.64,12.94.51,1.89.61,3.94.61,5.91.03,72.97.03,145.95.02,218.92,0,8.23-4.83,13.52-12.18,13.51-7.24,0-12.17-5.47-12.17-13.59,0-63.49,0-126.99,0-190.48v-5.37c-1.4,1.3-2.34,2.12-3.22,3C191.63,132.98,111.44,213.15,31.27,293.35c-2.79,2.79-5.65,5.31-9.87,5.43-5.25.16-9.21-2.08-11.57-6.74-2.36-4.68-1.69-9.19,1.58-13.27.7-.87,1.54-1.64,2.33-2.43C93.92,196.16,174.1,115.98,254.28,35.8c.94-.94,1.84-1.92,3.35-3.49Z"/>
</svg>